HIERARCHY
ROOT Hips
{
	OFFSET 0.00000 0.00000 0.00000
	CHANNELS 6 Xposition Yposition Zposition Zrotation Yrotation Xrotation 
	JOINT LHipJoint
	{
		OFFSET 0 0 0
		CHANNELS 3 Zrotation Yrotation Xrotation
		JOINT LeftUpLeg
		{
			OFFSET 1.86795 -1.59681 0.65681
			CHANNELS 3 Zrotation Yrotation Xrotation
			JOINT LeftLeg
			{
				OFFSET 2.30491 -6.33268 0.00000
				CHANNELS 3 Zrotation Yrotation Xrotation
				JOINT LeftFoot
				{
					OFFSET 2.46780 -6.78022 0.00000
					CHANNELS 3 Zrotation Yrotation Xrotation
					JOINT LeftToeBase
					{
						OFFSET 0.07897 -0.21698 1.59652
						CHANNELS 3 Zrotation Yrotation Xrotation
						End Site
						{
							OFFSET 0.00000 -0.00000 0.82310
						}
					}
				}
			}
		}
	}
	JOINT RHipJoint
	{
		OFFSET 0 0 0
		CHANNELS 3 Zrotation Yrotation Xrotation
		JOINT RightUpLeg
		{
			OFFSET -1.93650 -1.59681 0.65681
			CHANNELS 3 Zrotation Yrotation Xrotation
			JOINT RightLeg
			{
				OFFSET -2.29410 -6.30299 0.00000
				CHANNELS 3 Zrotation Yrotation Xrotation
				JOINT RightFoot
				{
					OFFSET -2.48738 -6.83403 0.00000
					CHANNELS 3 Zrotation Yrotation Xrotation
					JOINT RightToeBase
					{
						OFFSET -0.08699 -0.23899 1.89395
						CHANNELS 3 Zrotation Yrotation Xrotation
						End Site
						{
							OFFSET -0.00000 -0.00000 0.96904
						}
					}
				}
			}
		}
	}
	JOINT LowerBack
	{
		OFFSET 0 0 0
		CHANNELS 3 Zrotation Yrotation Xrotation
		JOINT Spine
		{
			OFFSET 0.03629 1.99740 -0.07548
			CHANNELS 3 Zrotation Yrotation Xrotation
			JOINT Spine1
			{
				OFFSET 0.03970 1.94298 0.17218
				CHANNELS 3 Zrotation Yrotation Xrotation
				JOINT Neck
				{
					OFFSET 0 0 0
					CHANNELS 3 Zrotation Yrotation Xrotation
					JOINT Neck1
					{
						OFFSET -0.05054 1.79469 0.04241
						CHANNELS 3 Zrotation Yrotation Xrotation
						JOINT Head
						{
							OFFSET 0.05195 1.78475 -0.22133
							CHANNELS 3 Zrotation Yrotation Xrotation
							End Site
							{
								OFFSET 0.02420 1.80711 -0.07950
							}
						}
					}
				}
				JOINT LeftShoulder
				{
					OFFSET 0 0 0
					CHANNELS 3 Zrotation Yrotation Xrotation
					JOINT LeftArm
					{
						OFFSET 2.92134 1.19850 0.36056
						CHANNELS 3 Zrotation Yrotation Xrotation
						JOINT LeftForeArm
						{
							OFFSET 4.84137 -0.00000 0.00000
							CHANNELS 3 Zrotation Yrotation Xrotation
							JOINT LeftHand
							{
								OFFSET 3.24520 -0.00000 -0.00000
								CHANNELS 3 Zrotation Yrotation Xrotation
								JOINT LeftFingerBase
								{
									OFFSET 0 0 0
									CHANNELS 3 Zrotation Yrotation Xrotation
									JOINT LeftHandIndex1
									{
										OFFSET 0.52122 -0.00000 0.00000
										CHANNELS 3 Zrotation Yrotation Xrotation
										End Site
										{
											OFFSET 0.42022 -0.00000 0.00000
										}
									}
								}
								JOINT LThumb
								{
									OFFSET 0 0 0
									CHANNELS 3 Zrotation Yrotation Xrotation
									End Site
									{
										OFFSET 0.42664 -0.00000 0.42664
									}
								}
							}
						}
					}
				}
				JOINT RightShoulder
				{
					OFFSET 0 0 0
					CHANNELS 3 Zrotation Yrotation Xrotation
					JOINT RightArm
					{
						OFFSET -2.84327 1.20795 0.50191
						CHANNELS 3 Zrotation Yrotation Xrotation
						JOINT RightForeArm
						{
							OFFSET -4.72284 -0.00000 0.00000
							CHANNELS 3 Zrotation Yrotation Xrotation
							JOINT RightHand
							{
								OFFSET -3.23459 -0.00000 0.00000
								CHANNELS 3 Zrotation Yrotation Xrotation
								JOINT RightFingerBase
								{
									OFFSET 0 0 0
									CHANNELS 3 Zrotation Yrotation Xrotation
									JOINT RightHandIndex1
									{
										OFFSET -0.30742 -0.00000 0.00000
										CHANNELS 3 Zrotation Yrotation Xrotation
										End Site
										{
											OFFSET -0.24785 -0.00000 0.00000
										}
									}
								}
								JOINT RThumb
								{
									OFFSET 0 0 0
									CHANNELS 3 Zrotation Yrotation Xrotation
									End Site
									{
										OFFSET -0.25163 -0.00000 0.25163
									}
								}
							}
						}
					}
				}
			}
		}
	}
}
MOTION
Frames: 5
Frame Time: .0083333
18.9571 16.5341 -14.3995 0 0 0 0 0 0 -21 0 0 0 0 0 0 0 0 0 0 0 0 0 0 21 0 0 0 0 0 0 0 0 0 0 0 0 0 0 0 0 0 0 0 0 0 0 -16 0 0 21 0 0 11 0 0 0 -8 0 0 0 0 0 0 0 0 0 0 0 0 0 0 0 0 0 0 0 0 8 0 0 0 0 0 0 0 0 0 0 0 0 0 0 0 0 0
18.9571 16.5341 -14.3995 -0.7932 -25.3763 10.6860 0.0000 0.0000 0.0000 -22.6205 -42.7803 -2.7719 1.1960 6.9393 19.5357 -0.5042 28.1214 -36.8178 2.2910 9.4475 27.2056 0.0000 0.0000 0.0000 19.5463 30.6298 -8.1453 -1.1021 -6.6707 18.7433 -3.0335 -27.8984 -50.9541 -6.6927 -15.0676 47.7025 1.0422 0.9503 -6.8406 1.2659 1.1855 -6.7229 0.7712 0.5563 -3.1230 -3.7827 0.7128 -8.3471 9.6550 -0.4717 20.3535 3.7842 0.3333 7.6307 0.0000 0.0000 0.0000 -87.6645 11.5514 50.5329 61.9282 -56.8022 -35.9501 -0.0000 0.0000 -13.6991 -16.7631 47.8262 -12.5840 -7.1250 0.0000 -0.0000 -72.0500 63.9402 -42.7810 0.0000 0.0000 0.0000 78.6409 -7.6966 55.0937 -35.6720 45.2861 -15.2890 0.0000 -0.0000 -45.3559 -22.0498 18.6051 -7.3632 7.1250 -0.0000 -0.0000 3.9660 -10.0567 3.2205
18.9743 16.5346 -14.3975 -0.5974 -25.5440 10.6136 0.0000 0.0000 0.0000 -22.9743 -43.1482 -2.4126 1.1637 6.8483 19.2666 -0.5117 28.4604 -37.2822 2.3645 9.5873 27.6504 0.0000 0.0000 0.0000 19.2239 30.4830 -8.5049 -1.1410 -6.7834 19.0753 -2.8016 -28.2860 -50.5336 -6.4818 -14.8795 46.8859 0.9200 0.9349 -6.8193 1.1691 1.1686 -6.7565 0.7385 0.5501 -3.1700 -3.7192 0.6653 -8.0318 9.5223 -0.5174 20.2138 3.7173 0.2942 7.5311 -0.0000 -0.0000 0.0000 -87.6331 11.5494 50.3381 61.5932 -56.7197 -35.6699 -0.0000 0.0000 -13.6478 -15.8843 47.5982 -11.8669 -7.1250 0.0000 -0.0000 -71.0021 64.1064 -42.0977 -0.0000 -0.0000 0.0000 78.6924 -7.6168 55.2354 -35.5304 45.1872 -15.1884 0.0000 -0.0000 -45.2818 -22.4028 19.0743 -7.6723 7.1250 -0.0000 -0.0000 3.7731 -9.5094 3.1048
18.9895 16.5324 -14.3964 -0.4566 -25.7558 10.4066 0.0000 0.0000 0.0000 -23.3965 -43.3978 -2.0087 1.1611 6.8407 19.2441 -0.4448 28.6339 -37.8830 2.4677 9.7789 28.2637 0.0000 0.0000 0.0000 19.0651 30.2927 -8.5261 -1.1499 -6.8089 19.1505 -2.4888 -28.9273 -50.0846 -6.3134 -14.7253 46.2270 0.8148 0.9323 -6.6216 1.1000 1.1719 -6.7348 0.7230 0.5545 -3.2574 -3.8785 0.5259 -7.8571 9.5642 -0.6910 20.1027 3.7391 0.1965 7.4754 -0.0000 -0.0000 0.0000 -87.5492 11.4907 50.1690 61.3924 -56.6697 -35.5021 -0.0000 0.0000 -13.7262 -14.8817 47.3016 -11.0507 -7.1250 0.0000 -0.0000 -69.7304 64.2771 -41.2377 -0.0000 -0.0000 0.0000 78.7247 -7.5680 55.3379 -35.5063 45.1703 -15.1713 0.0000 -0.0000 -45.3962 -22.3916 18.6207 -7.4943 7.1250 -0.0000 -0.0000 3.7444 -9.9913 3.0447
19.0054 16.5328 -14.3950 -0.5886 -25.9297 10.4228 0.0000 0.0000 0.0000 -23.3961 -43.4709 -1.8547 1.1477 6.8025 19.1317 -0.6276 29.2347 -37.8425 2.4086 9.6699 27.9142 0.0000 0.0000 0.0000 19.1179 30.2432 -8.6422 -1.1671 -6.8577 19.2944 -2.4148 -28.9641 -49.8712 -6.3088 -14.7211 46.2089 0.8983 0.9039 -6.5620 1.1809 1.1329 -6.6832 0.7578 0.5336 -3.2363 -4.2019 0.3308 -7.8894 9.5556 -0.9027 20.0140 3.7721 0.0695 7.4680 0.0000 0.0000 0.0000 -87.6211 11.4079 49.9543 61.4441 -56.6826 -35.5453 -0.0000 0.0000 -13.8053 -14.7185 47.4300 -10.9491 -7.1250 0.0000 -0.0000 -69.8418 64.3830 -41.4827 0.0000 0.0000 0.0000 78.6123 -7.4421 55.4711 -35.5674 45.2131 -15.2147 0.0000 -0.0000 -45.4837 -22.4302 18.5214 -7.4703 7.1250 -0.0000 -0.0000 3.7115 -10.0909 3.0103
